<svg xmlns="http://www.w3.org/2000/svg" style="display:none">
    <symbol id="icon-logo" viewBox="0 0 106 32">
        <path fill="#262626" style="fill: var(--color1, #262626)" d="M9.169 25.461c-1.466 0-2.694-0.348-3.687-1.043s-1.739-1.642-2.24-2.838c-0.501-1.206-0.751-2.555-0.751-4.049 0-1.512 0.25-2.866 0.751-4.063s1.234-2.138 2.198-2.824c0.974-0.696 2.175-1.043 3.603-1.043 1.419 0 2.648 0.348 3.687 1.043 1.048 0.686 1.86 1.628 2.435 2.824 0.575 1.187 0.863 2.542 0.863 4.063 0 1.503-0.283 2.852-0.849 4.049s-1.363 2.143-2.393 2.838c-1.030 0.696-2.235 1.043-3.617 1.043zM1.92 31.722v-21.704h2.963v10.546h0.417v11.158h-3.381zM8.654 22.456c0.872 0 1.591-0.218 2.157-0.654s0.983-1.025 1.252-1.767c0.278-0.751 0.417-1.586 0.417-2.504 0-0.909-0.139-1.735-0.417-2.477-0.278-0.751-0.71-1.345-1.294-1.781-0.584-0.445-1.326-0.668-2.226-0.668-0.853 0-1.549 0.209-2.087 0.626-0.538 0.408-0.937 0.983-1.197 1.725-0.25 0.733-0.376 1.591-0.376 2.574 0 0.974 0.125 1.832 0.376 2.574 0.26 0.742 0.663 1.322 1.21 1.739 0.557 0.408 1.285 0.612 2.184 0.612zM24.813 25.461c-1.521 0-2.857-0.329-4.007-0.988s-2.050-1.572-2.699-2.741c-0.64-1.169-0.96-2.514-0.96-4.035 0-1.642 0.315-3.065 0.946-4.271 0.631-1.215 1.507-2.157 2.63-2.824s2.421-1.002 3.896-1.002c1.558 0 2.88 0.366 3.965 1.099 1.095 0.723 1.906 1.748 2.435 3.075s0.728 2.889 0.598 4.689h-3.325v-1.224c-0.009-1.632-0.297-2.824-0.863-3.576s-1.456-1.127-2.671-1.127c-1.373 0-2.393 0.427-3.061 1.28-0.668 0.844-1.002 2.082-1.002 3.715 0 1.521 0.334 2.699 1.002 3.534s1.642 1.252 2.922 1.252c0.826 0 1.535-0.181 2.129-0.543 0.603-0.371 1.067-0.904 1.391-1.6l3.311 1.002c-0.575 1.354-1.465 2.407-2.671 3.158-1.197 0.751-2.518 1.127-3.965 1.127zM19.637 18.463v-2.532h10.337v2.532h-10.337zM42.415 25.043c-0.993 0.185-1.966 0.264-2.922 0.237-0.946-0.018-1.795-0.19-2.546-0.515-0.751-0.334-1.322-0.858-1.711-1.572-0.343-0.649-0.524-1.312-0.543-1.99s-0.028-1.442-0.028-2.296v-13.064h3.339v12.87c0 0.603 0.005 1.132 0.014 1.586 0.019 0.455 0.116 0.825 0.292 1.113 0.334 0.557 0.867 0.867 1.6 0.932s1.567 0.028 2.504-0.111v2.81zM31.938 12.647v-2.63h10.477v2.63h-10.477zM44.811 25.043v-20.452h3.353v20.452h-3.353z"></path>
        <path fill="#f6b83d" style="fill: var(--color2, #f6b83d)" d="M63.297 9.762c-1.892-2.233-5.046-2.834-7.416-0.789s-2.704 5.464-0.842 7.883c1.192 1.549 4.245 4.422 6.286 6.287 0.678 0.62 1.017 0.93 1.424 1.054 0.349 0.107 0.748 0.107 1.097 0 0.406-0.124 0.745-0.434 1.424-1.054 2.041-1.865 5.094-4.738 6.286-6.287 1.861-2.419 1.568-5.86-0.842-7.883s-5.524-1.444-7.416 0.789z"></path>
        <path fill="#262626" style="fill: var(--color1, #262626)" d="M81.141 25.043l-5.454-15.026h3.353l3.784 10.894 3.77-10.894h3.367l-5.454 15.026h-3.367zM97.634 25.461c-1.521 0-2.857-0.329-4.007-0.988s-2.050-1.572-2.699-2.741c-0.64-1.169-0.96-2.514-0.96-4.035 0-1.642 0.315-3.065 0.946-4.271 0.631-1.215 1.507-2.157 2.63-2.824s2.421-1.002 3.896-1.002c1.558 0 2.88 0.366 3.965 1.099 1.094 0.723 1.906 1.748 2.435 3.075s0.728 2.889 0.598 4.689h-3.325v-1.224c-0.009-1.632-0.297-2.824-0.863-3.576s-1.456-1.127-2.671-1.127c-1.373 0-2.393 0.427-3.061 1.28-0.668 0.844-1.002 2.082-1.002 3.715 0 1.521 0.334 2.699 1.002 3.534s1.642 1.252 2.922 1.252c0.825 0 1.535-0.181 2.129-0.543 0.603-0.371 1.067-0.904 1.391-1.6l3.311 1.002c-0.575 1.354-1.466 2.407-2.671 3.158-1.197 0.751-2.518 1.127-3.965 1.127zM92.458 18.463v-2.532h10.337v2.532h-10.337z"></path>
    </symbol>
    <symbol id="icon-profile" viewBox="0 0 32 32">
        <path fill="#fff4df" style="fill: var(--color3, #fff4df)" d="M32 16c0 8.837-7.163 16-16 16s-16-7.163-16-16c0-8.837 7.163-16 16-16s16 7.163 16 16z"></path>
        <path fill="#f6b83d" style="fill: var(--color2, #f6b83d); stroke: var(--color2, #f6b83d)" stroke="#f6b83d" stroke-linejoin="round" stroke-linecap="round" stroke-miterlimit="4" stroke-width="1.6" d="M16 18c-2.113 0-3.993 1.020-5.189 2.604-0.258 0.341-0.386 0.511-0.382 0.742 0.003 0.178 0.115 0.402 0.255 0.512 0.181 0.142 0.432 0.142 0.935 0.142h8.764c0.502 0 0.753 0 0.935-0.142 0.14-0.11 0.252-0.334 0.255-0.512 0.004-0.23-0.125-0.401-0.382-0.742-1.196-1.584-3.076-2.604-5.189-2.604z"></path>
        <path fill="#f6b83d" style="fill: var(--color2, #f6b83d); stroke: var(--color2, #f6b83d)" stroke="#f6b83d" stroke-linejoin="round" stroke-linecap="round" stroke-miterlimit="4" stroke-width="1.6" d="M16 16c1.657 0 3-1.343 3-3s-1.343-3-3-3c-1.657 0-3 1.343-3 3s1.343 3 3 3z"></path>
    </symbol>
    <symbol id="icon-menu" viewBox="0 0 32 32">
        <path stroke-linejoin="round" stroke-linecap="round" stroke-miterlimit="4" stroke-width="3" d="M4 16h24"></path>
        <path stroke-linejoin="round" stroke-linecap="round" stroke-miterlimit="4" stroke-width="3" d="M4 8h24"></path>
        <path stroke-linejoin="round" stroke-linecap="round" stroke-miterlimit="4" stroke-width="3" d="M4 24h24"></path>
    </symbol>
    <symbol id="icon-close" viewBox="0 0 32 32">
        <path stroke-linejoin="round" stroke-linecap="round" stroke-miterlimit="4" stroke-width="3" d="M24 8l-16 16"></path>
        <path stroke-linejoin="round" stroke-linecap="round" stroke-miterlimit="4" stroke-width="3" d="M8 8l16 16"></path>
    </symbol>
    <symbol id="icon-logo-main" viewBox="0 0 106 32">
        <path fill="#fff" style="fill: var(--color1, #fff)" d="M9.169 25.461c-1.466 0-2.694-0.348-3.687-1.043s-1.739-1.642-2.24-2.838c-0.501-1.206-0.751-2.555-0.751-4.049 0-1.512 0.25-2.866 0.751-4.063s1.234-2.138 2.198-2.824c0.974-0.696 2.175-1.043 3.603-1.043 1.419 0 2.648 0.348 3.687 1.043 1.048 0.686 1.86 1.628 2.435 2.824 0.575 1.187 0.863 2.542 0.863 4.063 0 1.503-0.283 2.852-0.849 4.049s-1.363 2.143-2.393 2.838c-1.030 0.696-2.235 1.043-3.617 1.043zM1.92 31.722v-21.704h2.963v10.546h0.417v11.158h-3.381zM8.654 22.456c0.872 0 1.591-0.218 2.157-0.654s0.983-1.025 1.252-1.767c0.278-0.751 0.417-1.586 0.417-2.504 0-0.909-0.139-1.735-0.417-2.477-0.278-0.751-0.71-1.345-1.294-1.781-0.584-0.445-1.326-0.668-2.226-0.668-0.853 0-1.549 0.209-2.087 0.626-0.538 0.408-0.937 0.983-1.197 1.725-0.25 0.733-0.376 1.591-0.376 2.574 0 0.974 0.125 1.832 0.376 2.574 0.26 0.742 0.663 1.322 1.21 1.739 0.557 0.408 1.285 0.612 2.184 0.612zM24.813 25.461c-1.521 0-2.857-0.329-4.007-0.988s-2.050-1.572-2.699-2.741c-0.64-1.169-0.96-2.514-0.96-4.035 0-1.642 0.315-3.065 0.946-4.271 0.631-1.215 1.507-2.157 2.63-2.824s2.421-1.002 3.896-1.002c1.558 0 2.88 0.366 3.965 1.099 1.095 0.723 1.906 1.748 2.435 3.075s0.728 2.889 0.598 4.689h-3.325v-1.224c-0.009-1.632-0.297-2.824-0.863-3.576s-1.456-1.127-2.671-1.127c-1.373 0-2.393 0.427-3.061 1.28-0.668 0.844-1.002 2.082-1.002 3.715 0 1.521 0.334 2.699 1.002 3.534s1.642 1.252 2.922 1.252c0.826 0 1.535-0.181 2.129-0.543 0.603-0.371 1.067-0.904 1.391-1.6l3.311 1.002c-0.575 1.354-1.465 2.407-2.671 3.158-1.197 0.751-2.518 1.127-3.965 1.127zM19.637 18.463v-2.532h10.337v2.532h-10.337zM42.415 25.043c-0.993 0.185-1.966 0.264-2.922 0.237-0.946-0.018-1.795-0.19-2.546-0.515-0.751-0.334-1.322-0.858-1.711-1.572-0.343-0.649-0.524-1.312-0.543-1.99s-0.028-1.442-0.028-2.296v-13.064h3.339v12.87c0 0.603 0.005 1.132 0.014 1.586 0.019 0.455 0.116 0.825 0.292 1.113 0.334 0.557 0.867 0.867 1.6 0.932s1.567 0.028 2.504-0.111v2.81zM31.938 12.647v-2.63h10.477v2.63h-10.477zM44.811 25.043v-20.452h3.353v20.452h-3.353z"></path>
        <path fill="#fff" style="fill: var(--color1, #fff)" d="M63.298 9.762c-1.891-2.233-5.046-2.834-7.416-0.789s-2.704 5.464-0.843 7.883c1.192 1.549 4.245 4.422 6.286 6.287 0.678 0.62 1.017 0.93 1.424 1.054 0.349 0.107 0.748 0.107 1.097 0 0.406-0.124 0.745-0.434 1.424-1.054 2.041-1.865 5.094-4.738 6.286-6.287 1.861-2.419 1.568-5.86-0.842-7.883s-5.524-1.444-7.416 0.789z"></path>
        <path fill="#fff" style="fill: var(--color1, #fff)" d="M81.141 25.043l-5.454-15.026h3.353l3.784 10.894 3.77-10.894h3.367l-5.454 15.026h-3.367zM97.634 25.461c-1.521 0-2.857-0.329-4.007-0.988s-2.050-1.572-2.699-2.741c-0.64-1.169-0.96-2.514-0.96-4.035 0-1.642 0.315-3.065 0.946-4.271 0.631-1.215 1.507-2.157 2.63-2.824s2.421-1.002 3.896-1.002c1.558 0 2.88 0.366 3.965 1.099 1.094 0.723 1.906 1.748 2.435 3.075s0.728 2.889 0.598 4.689h-3.325v-1.224c-0.009-1.632-0.297-2.824-0.863-3.576s-1.456-1.127-2.671-1.127c-1.373 0-2.393 0.427-3.061 1.28-0.668 0.844-1.002 2.082-1.002 3.715 0 1.521 0.334 2.699 1.002 3.534s1.642 1.252 2.922 1.252c0.825 0 1.535-0.181 2.129-0.543 0.603-0.371 1.067-0.904 1.391-1.6l3.311 1.002c-0.575 1.354-1.466 2.407-2.671 3.158-1.197 0.751-2.518 1.127-3.965 1.127zM92.458 18.463v-2.532h10.337v2.532h-10.337z"></path>
    </symbol>
</svg>